<svg width="25" height="26" viewBox="0 0 25 26" fill="none" xmlns="http://www.w3.org/2000/svg">
<path d="M12.5 0.5C10.8585 0.5 9.23303 0.831349 7.71646 1.47513C6.19989 2.11891 4.8219 3.06251 3.66117 4.25206C1.31696 6.65447 0 9.91282 0 13.3103C0 18.9725 3.5875 23.7764 8.55 25.4802C9.175 25.5826 9.375 25.1855 9.375 24.8396V22.6747C5.9125 23.4433 5.175 20.9581 5.175 20.9581C4.6 19.4721 3.7875 19.075 3.7875 19.075C2.65 18.2807 3.875 18.3064 3.875 18.3064C5.125 18.396 5.7875 19.6258 5.7875 19.6258C6.875 21.573 8.7125 20.9965 9.425 20.6891C9.5375 19.8564 9.8625 19.2928 10.2125 18.9725C7.4375 18.6522 4.525 17.5506 4.525 12.6698C4.525 11.2479 5 10.1078 5.8125 9.19822C5.6875 8.87796 5.25 7.54569 5.9375 5.81629C5.9375 5.81629 6.9875 5.47041 9.375 7.12294C10.3625 6.84112 11.4375 6.7002 12.5 6.7002C13.5625 6.7002 14.6375 6.84112 15.625 7.12294C18.0125 5.47041 19.0625 5.81629 19.0625 5.81629C19.75 7.54569 19.3125 8.87796 19.1875 9.19822C20 10.1078 20.475 11.2479 20.475 12.6698C20.475 17.5634 17.55 18.6394 14.7625 18.9597C15.2125 19.3568 15.625 20.1382 15.625 21.3296V24.8396C15.625 25.1855 15.825 25.5955 16.4625 25.4802C21.425 23.7636 25 18.9725 25 13.3103C25 11.6281 24.6767 9.96225 24.0485 8.40803C23.4203 6.85381 22.4996 5.44161 21.3388 4.25206C20.1781 3.06251 18.8001 2.11891 17.2835 1.47513C15.767 0.831349 14.1415 0.5 12.5 0.5Z" fill="#242424"/>
</svg>
